<svg aria-hidden="true" style="position: absolute; width: 0; height: 0; overflow: hidden;" version="1.1" xmlns="http://www.w3.org/2000/svg" xmlns:xlink="http://www.w3.org/1999/xlink">
<defs>
<symbol id="discordLogo" viewBox="0 0 32 32">
<path d="M11.921 19.394c0.803 0 1.455-0.651 1.455-1.455s-0.651-1.455-1.455-1.455c-0.803 0-1.455 0.651-1.455 1.455s0.651 1.455 1.455 1.455z"></path>
<path d="M19.678 19.394c0.803 0 1.455-0.651 1.455-1.455s-0.651-1.455-1.455-1.455c-0.803 0-1.455 0.651-1.455 1.455s0.651 1.455 1.455 1.455z"></path>
<path d="M15.792 10.182c-2.102-0.016-4.194 0.297-6.2 0.925-0.511 0.16-1.055-0.124-1.215-0.635s0.124-1.055 0.635-1.215c2.196-0.688 4.486-1.030 6.787-1.014 2.301-0.016 4.591 0.326 6.787 1.014 0.511 0.16 0.795 0.704 0.635 1.215s-0.704 0.795-1.215 0.635c-2.006-0.629-4.098-0.941-6.2-0.925h-0.014z"></path>
<path d="M8.377 21.528c0.16-0.511 0.704-0.795 1.215-0.635 2.006 0.629 4.098 0.941 6.2 0.925h0.014c2.102 0.015 4.194-0.297 6.2-0.925 0.511-0.16 1.055 0.124 1.215 0.635s-0.124 1.055-0.635 1.215c-2.196 0.688-4.486 1.030-6.787 1.014-2.301 0.016-4.591-0.326-6.787-1.014-0.511-0.16-0.795-0.704-0.635-1.215z"></path>
<path d="M19.891 5.149c0.417-0.235 0.907-0.309 1.375-0.207 1.278 0.277 2.529 0.665 3.738 1.161 0.272 0.105 0.517 0.271 0.715 0.486 0.2 0.217 0.347 0.478 0.429 0.761l4.107 13.716c0.107 0.357 0.11 0.738 0.007 1.097s-0.306 0.68-0.585 0.927l-0.005 0.004c-2.005 1.744-4.721 3.065-7.807 3.821-0.429 0.109-0.882 0.067-1.283-0.12-0.399-0.186-0.722-0.505-0.914-0.901l-1.463-2.901c-0.241-0.478-0.049-1.061 0.429-1.302s1.061-0.049 1.302 0.429l1.468 2.911c2.849-0.699 5.267-1.898 6.993-3.4l0.637 0.732-0.642-0.727c0.002-0.002 0.003-0.004 0.004-0.006s0.001-0.005 0-0.007l-4.108-13.717c-0.003-0.001-0.007-0.003-0.010-0.004-1.108-0.455-2.254-0.811-3.425-1.065l-0.002-0c-0.003-0.001-0.006-0-0.009 0.001s-0.004 0.003-0.005 0.006l-0.955 2.889c-0.168 0.509-0.716 0.784-1.225 0.616s-0.784-0.717-0.616-1.225l0.96-2.905c0.155-0.454 0.471-0.835 0.889-1.071z"></path>
<path d="M10.755 6.839c-0.003-0.001-0.006-0.002-0.009-0.001l-0.002 0c-1.171 0.254-2.317 0.61-3.425 1.065-0.003 0.001-0.007 0.003-0.010 0.004l-4.108 13.716c-0.001 0.002-0.001 0.005-0 0.007s0.002 0.004 0.003 0.005c1.726 1.5 4.143 2.698 6.989 3.396l0.001-0.002 1.467-2.909c0.241-0.478 0.824-0.67 1.302-0.429s0.67 0.824 0.429 1.302l-1.463 2.901c-0.192 0.396-0.515 0.715-0.914 0.901-0.401 0.187-0.854 0.23-1.283 0.12-3.086-0.756-5.802-2.077-7.807-3.821l-0.005-0.004c-0.28-0.247-0.483-0.569-0.585-0.927s-0.1-0.739 0.007-1.096c-0 0 0 0 0 0l4.108-13.716c0.082-0.283 0.229-0.544 0.429-0.761 0.198-0.215 0.442-0.381 0.715-0.486 1.21-0.496 2.461-0.884 3.739-1.161 0.468-0.102 0.957-0.028 1.374 0.207s0.734 0.617 0.889 1.071l0.003 0.008 0.958 2.897c0.168 0.508-0.108 1.057-0.616 1.225s-1.057-0.108-1.225-0.616l-0.955-2.889c-0.001-0.002-0.003-0.005-0.005-0.006z"></path>
</symbol>
<symbol id="mail" viewBox="0 0 32 32">
<path d="M3 7c0-0.552 0.448-1 1-1h24c0.552 0 1 0.448 1 1v17c0 0.53-0.211 1.039-0.586 1.414s-0.884 0.586-1.414 0.586h-22c-0.53 0-1.039-0.211-1.414-0.586s-0.586-0.884-0.586-1.414v-17zM5 8v16h22v-16h-22z"></path>
<path d="M3.263 6.324c0.373-0.407 1.006-0.435 1.413-0.061l11.324 10.38 11.324-10.38c0.407-0.373 1.040-0.346 1.413 0.061s0.346 1.040-0.061 1.413l-12 11c-0.382 0.351-0.969 0.351-1.351 0l-12-11c-0.407-0.373-0.435-1.006-0.061-1.413z"></path>
</symbol>
<symbol id="eye" viewBox="0 0 32 32">
<path d="M4.543 10.793c2.384-2.384 6.125-4.793 11.457-4.793s9.073 2.409 11.457 4.793c1.189 1.189 2.046 2.376 2.608 3.268 0.281 0.447 0.49 0.821 0.629 1.088 0.070 0.134 0.123 0.24 0.159 0.316 0.018 0.038 0.032 0.068 0.042 0.089l0.012 0.026 0.004 0.008 0.001 0.003 0 0.001c0 0 0 0.001-0.913 0.407 0.914 0.406 0.914 0.407 0.913 0.407l-0 0.001-0.001 0.003-0.004 0.008-0.012 0.026c-0.010 0.022-0.024 0.052-0.042 0.089-0.036 0.076-0.089 0.182-0.159 0.316-0.14 0.267-0.348 0.642-0.629 1.088-0.561 0.892-1.419 2.079-2.608 3.268-2.384 2.384-6.124 4.793-11.457 4.793s-9.073-2.409-11.457-4.793c-1.189-1.189-2.046-2.376-2.608-3.268-0.281-0.447-0.49-0.821-0.629-1.088-0.070-0.134-0.123-0.24-0.159-0.316-0.018-0.038-0.032-0.068-0.042-0.089l-0.012-0.026-0.004-0.008-0.001-0.003-0-0.001c-0-0-0-0.001 0.913-0.407-0.914-0.406-0.914-0.407-0.913-0.407l0.002-0.004 0.004-0.008 0.012-0.026c0.010-0.022 0.024-0.052 0.042-0.089 0.036-0.076 0.089-0.182 0.159-0.316 0.14-0.267 0.348-0.642 0.629-1.088 0.561-0.892 1.419-2.079 2.608-3.268zM2 16l-0.914-0.406c-0.115 0.259-0.115 0.554 0 0.812l0.914-0.406zM3.118 16c0.118 0.22 0.287 0.52 0.509 0.873 0.501 0.796 1.269 1.858 2.33 2.92 2.116 2.116 5.375 4.207 10.043 4.207s7.927-2.091 10.043-4.207c1.061-1.061 1.829-2.124 2.33-2.92 0.223-0.354 0.392-0.653 0.509-0.873-0.118-0.22-0.287-0.52-0.509-0.873-0.501-0.796-1.269-1.858-2.33-2.919-2.116-2.116-5.376-4.207-10.043-4.207s-7.927 2.091-10.043 4.207c-1.061 1.061-1.829 2.124-2.33 2.919-0.223 0.354-0.392 0.653-0.509 0.873zM30 16l0.914 0.406c0.115-0.259 0.115-0.554 0-0.812l-0.914 0.406z"></path>
<path d="M16 12c-2.209 0-4 1.791-4 4s1.791 4 4 4c2.209 0 4-1.791 4-4s-1.791-4-4-4zM10 16c0-3.314 2.686-6 6-6s6 2.686 6 6c0 3.314-2.686 6-6 6s-6-2.686-6-6z"></path>
</symbol>
<symbol id="insta" viewBox="0 0 32 32">
<path d="M15.799 12.121c-2.142 0-3.879 1.737-3.879 3.879s1.737 3.879 3.879 3.879c2.142 0 3.879-1.737 3.879-3.879s-1.737-3.879-3.879-3.879zM9.981 16c0-3.213 2.605-5.818 5.818-5.818s5.818 2.605 5.818 5.818c0 3.213-2.605 5.818-5.818 5.818s-5.818-2.605-5.818-5.818z"></path>
<path d="M10.466 5.818c-2.678 0-4.848 2.171-4.848 4.848v10.667c0 2.678 2.171 4.849 4.848 4.849h10.667c2.678 0 4.848-2.171 4.848-4.849v-10.667c0-2.678-2.171-4.848-4.849-4.848h-10.667zM3.678 10.667c0-3.749 3.039-6.788 6.788-6.788h10.667c3.749 0 6.788 3.039 6.788 6.788v10.667c0 3.749-3.039 6.788-6.788 6.788h-10.667c-3.749 0-6.788-3.039-6.788-6.788v-10.667z"></path>
<path d="M22.102 11.152c0.803 0 1.455-0.651 1.455-1.455s-0.651-1.455-1.455-1.455c-0.803 0-1.455 0.651-1.455 1.455s0.651 1.455 1.455 1.455z"></path>
</symbol>
<symbol id="storefront" viewBox="0 0 32 32">
<path d="M6.102 12.557c0.536 0 0.97 0.434 0.97 0.97v12.17h17.455v-12.17c0-0.536 0.434-0.97 0.97-0.97s0.97 0.434 0.97 0.97v12.17c0 0.514-0.204 1.008-0.568 1.371s-0.857 0.568-1.371 0.568h-17.455c-0.514 0-1.008-0.204-1.371-0.568s-0.568-0.857-0.568-1.371v-12.17c0-0.536 0.434-0.97 0.97-0.97z"></path>
<path d="M3.193 5.333c0-0.536 0.434-0.97 0.97-0.97h23.273c0.536 0 0.97 0.434 0.97 0.97s-0.434 0.97-0.97 0.97h-23.273c-0.536 0-0.97-0.434-0.97-0.97z"></path>
<path d="M4.163 7.273c0.536 0 0.97 0.434 0.97 0.97v1.939c0 0.771 0.306 1.511 0.852 2.057s1.285 0.852 2.057 0.852c0.772 0 1.511-0.307 2.057-0.852s0.852-1.286 0.852-2.057v-1.939c0-0.536 0.434-0.97 0.97-0.97s0.97 0.434 0.97 0.97v1.939c0 1.286-0.511 2.519-1.42 3.428s-2.143 1.42-3.428 1.42-2.519-0.511-3.428-1.42c-0.909-0.909-1.42-2.142-1.42-3.428v-1.939c0-0.536 0.434-0.97 0.97-0.97z"></path>
<path d="M11.921 7.273c0.536 0 0.97 0.434 0.97 0.97v1.939c0 0.771 0.306 1.511 0.852 2.057s1.286 0.852 2.057 0.852c0.771 0 1.511-0.307 2.057-0.852s0.852-1.286 0.852-2.057v-1.939c0-0.536 0.434-0.97 0.97-0.97s0.97 0.434 0.97 0.97v1.939c0 1.286-0.511 2.519-1.42 3.428s-2.142 1.42-3.428 1.42-2.519-0.511-3.428-1.42c-0.909-0.909-1.42-2.142-1.42-3.428v-1.939c0-0.536 0.434-0.97 0.97-0.97z"></path>
<path d="M19.678 7.273c0.536 0 0.97 0.434 0.97 0.97v1.939c0 0.771 0.306 1.511 0.852 2.057s1.286 0.852 2.057 0.852c0.771 0 1.511-0.307 2.057-0.852s0.852-1.286 0.852-2.057v-1.939c0-0.536 0.434-0.97 0.97-0.97s0.97 0.434 0.97 0.97v1.939c0 1.286-0.511 2.519-1.42 3.428s-2.142 1.42-3.428 1.42-2.519-0.511-3.428-1.42c-0.909-0.909-1.42-2.142-1.42-3.428v-1.939c0-0.536 0.434-0.97 0.97-0.97z"></path>
</symbol>
<symbol id="twitter" viewBox="0 0 32 32">
<path stroke-linejoin="round" stroke-linecap="round" stroke-miterlimit="4" stroke-width="1.9394" d="M15.799 11.152c0-2.667 2.242-4.885 4.909-4.849 0.934 0.011 1.845 0.291 2.623 0.807s1.391 1.246 1.765 2.102h4.279l-3.915 3.915c-0.253 3.933-1.994 7.622-4.869 10.317s-6.669 4.194-10.61 4.192c-3.879 0-4.848-1.455-4.848-1.455s3.879-1.455 5.818-4.364c0 0-7.758-3.879-5.818-14.546 0 0 4.848 4.849 10.667 5.818v-1.939z"></path>
</symbol>
<symbol id="youtube" viewBox="0 0 32 32">
<path d="M13.402 11.266c0.315-0.169 0.698-0.15 0.995 0.048l5.818 3.879c0.27 0.18 0.432 0.483 0.432 0.807s-0.162 0.627-0.432 0.807l-5.818 3.879c-0.298 0.198-0.68 0.217-0.995 0.048s-0.512-0.497-0.512-0.855v-7.758c0-0.358 0.197-0.686 0.512-0.855zM14.83 13.933v4.134l3.1-2.067-3.1-2.067z"></path>
<path d="M15.798 5.383h0.080c0.053 0 0.13 0 0.229 0.002 0.197 0.002 0.482 0.007 0.836 0.017 0.707 0.021 1.693 0.066 2.809 0.16 2.207 0.186 5.018 0.573 7.181 1.4l0.014 0.006c0.425 0.17 0.804 0.438 1.107 0.781s0.52 0.753 0.635 1.196l0.001 0.004c0.302 1.182 0.685 3.373 0.685 7.052s-0.383 5.871-0.685 7.052l-0.001 0.004c-0.115 0.443-0.333 0.853-0.635 1.196s-0.682 0.611-1.107 0.781l-0.014 0.006c-2.164 0.827-4.974 1.213-7.181 1.4-1.116 0.094-2.102 0.139-2.809 0.16-0.354 0.011-0.639 0.015-0.836 0.018-0.099 0.001-0.176 0.001-0.229 0.002h-0.157c-0.053-0-0.13-0-0.229-0.002-0.198-0.002-0.482-0.007-0.836-0.018-0.707-0.021-1.693-0.066-2.809-0.16-2.207-0.186-5.018-0.573-7.181-1.4l-0.014-0.006c-0.425-0.17-0.804-0.438-1.107-0.781s-0.52-0.753-0.635-1.196l-0.001-0.004c-0.302-1.182-0.685-3.373-0.685-7.052s0.383-5.871 0.685-7.052l0.001-0.004c0.115-0.443 0.333-0.853 0.635-1.196s0.682-0.611 1.107-0.781l0.014-0.006c2.164-0.827 4.974-1.213 7.181-1.4 1.116-0.094 2.102-0.139 2.809-0.16 0.354-0.011 0.639-0.015 0.836-0.017 0.099-0.001 0.176-0.001 0.229-0.002h0.077zM15.794 24.68l0.010-0 0.003 0h0.066c0.048-0 0.119-0 0.212-0.001 0.186-0.002 0.459-0.006 0.799-0.017 0.681-0.020 1.631-0.064 2.704-0.154 2.168-0.183 4.748-0.553 6.644-1.276 0.14-0.057 0.266-0.146 0.366-0.26 0.101-0.115 0.174-0.252 0.213-0.401 0.256-1.001 0.624-3.028 0.624-6.57s-0.368-5.569-0.624-6.57c-0.039-0.148-0.112-0.286-0.213-0.401-0.1-0.114-0.225-0.203-0.366-0.26-1.896-0.723-4.476-1.093-6.644-1.276-1.073-0.091-2.023-0.134-2.704-0.154-0.34-0.010-0.613-0.015-0.799-0.017-0.093-0.001-0.165-0.001-0.212-0.001h-0.149c-0.048 0-0.119 0-0.212 0.001-0.186 0.002-0.459 0.006-0.799 0.017-0.681 0.020-1.631 0.064-2.704 0.154-2.168 0.183-4.748 0.553-6.644 1.276-0.14 0.057-0.266 0.146-0.366 0.26-0.101 0.115-0.174 0.252-0.213 0.401-0.256 1.001-0.624 3.028-0.624 6.57s0.368 5.569 0.624 6.57c0.039 0.148 0.112 0.285 0.213 0.401 0.1 0.114 0.226 0.203 0.366 0.26 1.896 0.723 4.476 1.093 6.644 1.276 1.073 0.091 2.023 0.134 2.704 0.154 0.34 0.010 0.612 0.015 0.799 0.017 0.093 0.001 0.165 0.001 0.212 0.001h0.069z"></path>
</symbol>
</defs>
</svg>
